<?xml version="1.0" encoding="UTF-8" standalone="no"?>
<!DOCTYPE svg PUBLIC "-//W3C//DTD SVG 1.1//EN"
 "http://www.w3.org/Graphics/SVG/1.1/DTD/svg11.dtd">
<!-- Generated by graphviz version 2.40.1 (0)
 -->
<!-- Title: workflow Pages: 1 -->
<svg width="357pt" height="80pt"
 viewBox="0.00 0.00 357.00 80.00" xmlns="http://www.w3.org/2000/svg" xmlns:xlink="http://www.w3.org/1999/xlink">
<g id="graph0" class="graph" transform="scale(1 1) rotate(0) translate(4 76)">
<title>workflow</title>
<polygon fill="#ffffff" stroke="transparent" points="-4,4 -4,-76 353,-76 353,4 -4,4"/>
<!-- place_e22586930a5b2f196cd9070b9a4af5c47c1380fa -->
<g id="node1" class="node">
<title>place_e22586930a5b2f196cd9070b9a4af5c47c1380fa</title>
<ellipse fill="#add8e6" stroke="#333333" cx="162" cy="-36" rx="36" ry="36"/>
<text text-anchor="middle" x="162" y="-33.8" font-family="Arial" font-size="9.00" fill="#000000">pending</text>
</g>
<!-- place_46c7abc90975bad7d134920630ac021d738d4aa2 -->
<g id="node3" class="node">
<title>place_46c7abc90975bad7d134920630ac021d738d4aa2</title>
<ellipse fill="none" stroke="#333333" cx="313" cy="-36" rx="36" ry="36"/>
<text text-anchor="middle" x="313" y="-33.8" font-family="Arial" font-size="9.00" fill="#000000">processed</text>
</g>
<!-- place_e22586930a5b2f196cd9070b9a4af5c47c1380fa&#45;&gt;place_46c7abc90975bad7d134920630ac021d738d4aa2 -->
<g id="edge1" class="edge">
<title>place_e22586930a5b2f196cd9070b9a4af5c47c1380fa&#45;&gt;place_46c7abc90975bad7d134920630ac021d738d4aa2</title>
<path fill="none" stroke="#333333" d="M198.1683,-36C220.3127,-36 248.7203,-36 271.74,-36"/>
<polygon fill="#333333" stroke="#333333" points="271.8655,-37.7501 276.8655,-36 271.8654,-34.2501 271.8655,-37.7501"/>
<text text-anchor="middle" x="237.5" y="-38.8" font-family="Arial" font-size="9.00" fill="#000000">processing</text>
</g>
<!-- place_11f9578d05e6f7bb58a3cdd00107e9f4e3882671 -->
<g id="node2" class="node">
<title>place_11f9578d05e6f7bb58a3cdd00107e9f4e3882671</title>
<ellipse fill="none" stroke="#333333" cx="36" cy="-36" rx="36" ry="36"/>
<text text-anchor="middle" x="36" y="-33.8" font-family="Arial" font-size="9.00" fill="#000000">error</text>
</g>
<!-- place_11f9578d05e6f7bb58a3cdd00107e9f4e3882671&#45;&gt;place_e22586930a5b2f196cd9070b9a4af5c47c1380fa -->
<g id="edge2" class="edge">
<title>place_11f9578d05e6f7bb58a3cdd00107e9f4e3882671&#45;&gt;place_e22586930a5b2f196cd9070b9a4af5c47c1380fa</title>
<path fill="none" stroke="#333333" d="M72.1065,-36C87.2642,-36 104.9787,-36 120.6562,-36"/>
<polygon fill="#333333" stroke="#333333" points="120.8882,-37.7501 125.8882,-36 120.8882,-34.2501 120.8882,-37.7501"/>
<text text-anchor="middle" x="99" y="-38.8" font-family="Arial" font-size="9.00" fill="#000000">retry</text>
</g>
</g>
</svg>
